<svg width="133" height="196" viewBox="0 0 133 196" fill="none" xmlns="http://www.w3.org/2000/svg">
<path d="M122.417 83.8908V72.25L97.3888 98.88L83.082 83.6617L52.7513 115.927L45.9167 108.657L83.082 69.1192L97.3872 84.3392L116.171 64.3558H104.054V54.0725H132.083V83.8908H122.417Z" fill="#F4F3F3"/>
<path d="M49.6154 148.192C47.7594 148.192 46.106 147.819 44.6554 147.072C43.2047 146.304 42.0634 145.259 41.2314 143.936C40.4207 142.613 40.0154 141.099 40.0154 139.392V125.6H45.5194V139.104C45.5194 139.915 45.7007 140.651 46.0634 141.312C46.426 141.952 46.9167 142.464 47.5354 142.848C48.154 143.211 48.8474 143.392 49.6154 143.392C50.426 143.392 51.1407 143.211 51.7594 142.848C52.3994 142.464 52.9114 141.952 53.2954 141.312C53.6794 140.651 53.8714 139.915 53.8714 139.104V125.6H59.1834V139.392C59.1834 141.099 58.7674 142.613 57.9354 143.936C57.1247 145.259 55.994 146.304 54.5434 147.072C53.0927 147.819 51.45 148.192 49.6154 148.192ZM64.6441 148V125.6H69.5081L81.2521 141.6L80.1961 141.44C80.0895 140.736 80.0041 140.064 79.9401 139.424C79.8761 138.784 79.8121 138.155 79.7481 137.536C79.7055 136.917 79.6628 136.288 79.6201 135.648C79.5988 135.008 79.5775 134.315 79.5561 133.568C79.5561 132.821 79.5561 132.011 79.5561 131.136V125.6H84.8361V148H79.9081L67.6521 131.488L69.2841 131.712C69.3908 132.736 69.4761 133.611 69.5401 134.336C69.6255 135.04 69.6895 135.669 69.7321 136.224C69.7961 136.779 69.8388 137.28 69.8601 137.728C69.8815 138.176 69.8921 138.624 69.8921 139.072C69.9135 139.499 69.9241 139.979 69.9241 140.512V148H64.6441ZM90.4566 148V125.6H99.8326C101.475 125.6 102.979 125.877 104.345 126.432C105.71 126.965 106.883 127.733 107.865 128.736C108.867 129.739 109.635 130.923 110.169 132.288C110.702 133.653 110.969 135.157 110.969 136.8C110.969 138.443 110.702 139.957 110.169 141.344C109.635 142.709 108.867 143.893 107.865 144.896C106.883 145.877 105.71 146.645 104.345 147.2C102.979 147.733 101.475 148 99.8326 148H90.4566ZM95.8966 144.288L95.1606 143.2H99.6726C100.569 143.2 101.369 143.051 102.073 142.752C102.777 142.432 103.374 141.995 103.865 141.44C104.377 140.885 104.771 140.213 105.049 139.424C105.326 138.635 105.465 137.76 105.465 136.8C105.465 135.84 105.326 134.965 105.049 134.176C104.771 133.387 104.377 132.715 103.865 132.16C103.374 131.605 102.777 131.179 102.073 130.88C101.369 130.56 100.569 130.4 99.6726 130.4H95.0646L95.8966 129.376V144.288ZM122.599 148.32C121.127 148.32 119.794 148.149 118.599 147.808C117.426 147.445 116.381 146.933 115.463 146.272C114.546 145.589 113.725 144.789 112.999 143.872L116.295 140.128C117.362 141.557 118.429 142.517 119.495 143.008C120.583 143.499 121.703 143.744 122.855 143.744C123.431 143.744 123.954 143.669 124.423 143.52C124.893 143.371 125.255 143.157 125.511 142.88C125.767 142.581 125.895 142.219 125.895 141.792C125.895 141.472 125.81 141.184 125.639 140.928C125.49 140.672 125.277 140.448 124.999 140.256C124.722 140.064 124.391 139.893 124.007 139.744C123.623 139.573 123.218 139.435 122.791 139.328C122.365 139.2 121.927 139.093 121.479 139.008C120.242 138.731 119.165 138.389 118.247 137.984C117.33 137.579 116.562 137.088 115.943 136.512C115.346 135.915 114.898 135.243 114.599 134.496C114.301 133.728 114.151 132.875 114.151 131.936C114.151 130.933 114.375 130.016 114.823 129.184C115.293 128.331 115.911 127.605 116.679 127.008C117.469 126.389 118.375 125.92 119.399 125.6C120.423 125.259 121.49 125.088 122.599 125.088C124.071 125.088 125.33 125.248 126.375 125.568C127.442 125.867 128.349 126.304 129.095 126.88C129.863 127.456 130.514 128.149 131.047 128.96L127.687 132.192C127.239 131.637 126.749 131.179 126.215 130.816C125.703 130.453 125.149 130.176 124.551 129.984C123.975 129.792 123.378 129.696 122.759 129.696C122.119 129.696 121.565 129.781 121.095 129.952C120.647 130.101 120.295 130.325 120.039 130.624C119.783 130.901 119.655 131.243 119.655 131.648C119.655 132.011 119.762 132.32 119.975 132.576C120.189 132.832 120.477 133.067 120.839 133.28C121.202 133.472 121.618 133.643 122.087 133.792C122.557 133.92 123.047 134.027 123.559 134.112C124.733 134.347 125.789 134.656 126.727 135.04C127.687 135.424 128.509 135.893 129.191 136.448C129.895 137.003 130.429 137.664 130.791 138.432C131.175 139.179 131.367 140.053 131.367 141.056C131.367 142.613 130.983 143.936 130.215 145.024C129.469 146.091 128.434 146.912 127.111 147.488C125.81 148.043 124.306 148.32 122.599 148.32Z" fill="#004878"/>
<path d="M14.7015 148V58.4H36.4615V148H14.7015ZM24.8135 113.696V95.52H71.1495V113.696H24.8135ZM24.8135 77.6V58.4H76.3975V77.6H24.8135Z" fill="#004878"/>
<path d="M11.7015 144V54.4H33.4615V144H11.7015ZM21.8135 109.696V91.52H68.1495V109.696H21.8135ZM21.8135 73.6V54.4H73.3975V73.6H21.8135Z" fill="#D03027" fill-opacity="0.62"/>
<path d="M82.378 114.096C81.45 114.096 80.6233 113.909 79.898 113.536C79.1727 113.152 78.602 112.629 78.186 111.968C77.7807 111.307 77.578 110.549 77.578 109.696V102.8H80.33V109.552C80.33 109.957 80.4207 110.325 80.602 110.656C80.7833 110.976 81.0287 111.232 81.338 111.424C81.6473 111.605 81.994 111.696 82.378 111.696C82.7833 111.696 83.1407 111.605 83.45 111.424C83.77 111.232 84.026 110.976 84.218 110.656C84.41 110.325 84.506 109.957 84.506 109.552V102.8H87.162V109.696C87.162 110.549 86.954 111.307 86.538 111.968C86.1327 112.629 85.5673 113.152 84.842 113.536C84.1167 113.909 83.2953 114.096 82.378 114.096ZM92.3244 114V105.2H88.9964V102.8H98.4524V105.2H95.0444V114H92.3244ZM105.097 114.096C104.169 114.096 103.342 113.909 102.617 113.536C101.891 113.152 101.321 112.629 100.905 111.968C100.499 111.307 100.297 110.549 100.297 109.696V102.8H103.049V109.552C103.049 109.957 103.139 110.325 103.321 110.656C103.502 110.976 103.747 111.232 104.057 111.424C104.366 111.605 104.713 111.696 105.097 111.696C105.502 111.696 105.859 111.605 106.169 111.424C106.489 111.232 106.745 110.976 106.937 110.656C107.129 110.325 107.225 109.957 107.225 109.552V102.8H109.881V109.696C109.881 110.549 109.673 111.307 109.257 111.968C108.851 112.629 108.286 113.152 107.561 113.536C106.835 113.909 106.014 114.096 105.097 114.096ZM112.611 114V102.8H117.651C118.366 102.8 119.011 102.955 119.587 103.264C120.174 103.573 120.632 104 120.963 104.544C121.294 105.077 121.459 105.685 121.459 106.368C121.459 107.072 121.294 107.707 120.963 108.272C120.632 108.827 120.179 109.264 119.603 109.584C119.027 109.904 118.376 110.064 117.651 110.064H115.203V114H112.611ZM118.819 114L115.971 108.944L118.755 108.544L121.923 114H118.819ZM115.203 107.984H117.411C117.688 107.984 117.928 107.925 118.131 107.808C118.344 107.68 118.504 107.504 118.611 107.28C118.728 107.056 118.787 106.8 118.787 106.512C118.787 106.224 118.723 105.973 118.595 105.76C118.467 105.536 118.28 105.365 118.035 105.248C117.8 105.131 117.512 105.072 117.171 105.072H115.203V107.984ZM123.846 114V102.8H131.654V105.12H126.486V111.68H131.814V114H123.846ZM125.126 109.408V107.2H130.934V109.408H125.126Z" fill="#D22E1E" fill-opacity="0.8"/>
</svg>
